<svg xmlns="http://www.w3.org/2000/svg" xmlns:xlink="http://www.w3.org/1999/xlink" width="127" height="38" viewBox="0 0 127 38">
  <defs>
    <linearGradient id="linear-gradient" x1="0.445" x2="0.444" y2="1" gradientUnits="objectBoundingBox">
      <stop offset="0" stop-color="#1778d5"/>
      <stop offset="0.502" stop-color="#0f6cc4"/>
      <stop offset="1" stop-color="#0a5caa"/>
    </linearGradient>
  </defs>
  <g id="search" transform="translate(-11 2)">
    <rect id="Rectangle_697" data-name="Rectangle 697" width="127" height="38" rx="4" transform="translate(11 -2)" fill="url(#linear-gradient)"/>
    <text id="엑셀업로드" transform="translate(59 22)" fill="#fff" font-size="13" font-family="AppleSDGothicNeo-Regular, Apple SD Gothic Neo" letter-spacing="0.009em"><tspan x="0" y="0">엑셀업로드</tspan></text>
    <g id="Smock_UserAdd_18_N" transform="translate(33.001 8)">
      <rect id="Canvas" width="18" height="18" fill="#ff13dc" opacity="0"/>
      <path id="Path_11848" data-name="Path 11848" d="M22.343,3H16V5.066h2.1V6.472H16V7.846h2.077V9.231H16v1.385h2.077V12H16v1.385h2.077v1.385H16v2.077h6.343a.593.593,0,0,0,.58-.6V3.6A.593.593,0,0,0,22.343,3Zm-.8,11.769H18.769V13.385h2.769Zm0-2.769H18.769V10.615h2.769Zm0-2.769H18.769V7.846h2.769Zm0-2.769H18.769V5.077h2.769Z" transform="translate(-4.924 -0.923)" fill="#fff"/>
      <path id="Path_11849" data-name="Path 11849" d="M0,2V16l10.385,2V0ZM6.569,12.517,5.361,10.233a2.026,2.026,0,0,1-.142-.469H5.2a3.555,3.555,0,0,1-.162.489L3.826,12.517H1.943L4.178,9.011,2.134,5.5H4.056l1,2.1a3.673,3.673,0,0,1,.21.591h.019q.059-.206.22-.611L6.623,5.5h1.76L6.28,8.981l2.161,3.536Z" transform="translate(-0.001)" fill="#fff"/>
    </g>
  </g>
</svg>
