<svg xmlns="http://www.w3.org/2000/svg" xmlns:xlink="http://www.w3.org/1999/xlink" width="117" height="38" viewBox="0 0 117 38">
  <defs>
    <linearGradient id="linear-gradient" x1="0.445" x2="0.444" y2="1" gradientUnits="objectBoundingBox">
      <stop offset="0" stop-color="#1778d5"/>
      <stop offset="0.502" stop-color="#0f6cc4"/>
      <stop offset="1" stop-color="#0a5caa"/>
    </linearGradient>
  </defs>
  <g id="search" transform="translate(-6 2)">
    <rect id="Rectangle_697" data-name="Rectangle 697" width="117" height="38" rx="4" transform="translate(6 -2)" fill="url(#linear-gradient)"/>
    <text id="입금취소" transform="translate(56 22)" fill="#fff" font-size="13" font-family="AppleSDGothicNeo-Regular, Apple SD Gothic Neo" letter-spacing="0.009em"><tspan x="0" y="0">입금취소</tspan></text>
    <g id="Smock_Close_18_N" transform="translate(28 8)">
      <rect id="Canvas" width="18" height="18" fill="#ff13dc" opacity="0"/>
      <path id="Path_11836" data-name="Path 11836" d="M13.243,3.343,9,7.586,4.758,3.343a.5.5,0,0,0-.707,0l-.707.707a.5.5,0,0,0,0,.707L7.586,9,3.343,13.243a.5.5,0,0,0,0,.707l.707.707a.5.5,0,0,0,.707,0L9,10.414l4.243,4.243a.5.5,0,0,0,.707,0l.707-.707a.5.5,0,0,0,0-.707L10.414,9l4.243-4.242a.5.5,0,0,0,0-.707l-.707-.707a.5.5,0,0,0-.707,0Z" fill="#fff"/>
    </g>
  </g>
</svg>
