<svg id="_1._Icons_Line_file-export" data-name="1. Icons / Line /  file-export" xmlns="http://www.w3.org/2000/svg" width="24" height="24" viewBox="0 0 24 24">
  <path id="file-export" d="M13.5,20H2.5A2.5,2.5,0,0,1,0,17.5V2.5A2.5,2.5,0,0,1,2.5,0h9a.494.494,0,0,1,.351.147l4,4A.491.491,0,0,1,16,4.529V6.5a.5.5,0,1,1-1,0V5H11.5a.5.5,0,0,1-.5-.5V1H2.5A1.5,1.5,0,0,0,1,2.5v15A1.5,1.5,0,0,0,2.5,19h11A1.5,1.5,0,0,0,15,17.5v-2a.5.5,0,0,1,1,0v2A2.5,2.5,0,0,1,13.5,20ZM12,1.708V4h2.293ZM12.5,14a.5.5,0,0,1-.354-.855L14.293,11H6.486a.5.5,0,1,1,0-1h7.807L12.146,7.855a.5.5,0,1,1,.707-.708l3,3a.5.5,0,0,1,0,.708l-3,3A.5.5,0,0,1,12.5,14Z" transform="translate(4 1.999)" fill="#121924"/>
</svg>
