<svg xmlns="http://www.w3.org/2000/svg" xmlns:xlink="http://www.w3.org/1999/xlink" width="22" height="24" viewBox="0 0 22 24">
  <defs>
    <clipPath id="clip-path">
      <rect width="22" height="24" fill="none"/>
    </clipPath>
  </defs>
  <g id="Icons_24px_Black_Button" data-name="Icons/24px/Black/Button" clip-path="url(#clip-path)">
    <g id="button-power">
      <path id="Path" d="M16.5.134a1,1,0,1,0-1,1.732,9,9,0,1,1-9,0,1,1,0,0,0-1-1.73,11,11,0,1,0,11,0Z" transform="translate(0 3.336)" fill="#172b4d"/>
      <path id="Path-2" data-name="Path" d="M1,9A1,1,0,0,0,2,8V1A1,1,0,0,0,0,1V8A1,1,0,0,0,1,9Z" transform="translate(10)" fill="#172b4d"/>
    </g>
  </g>
</svg>
