<svg id="Group_4400" data-name="Group 4400" xmlns="http://www.w3.org/2000/svg" width="232" height="56" viewBox="0 0 232 56">
  <rect id="Rectangle_2" data-name="Rectangle 2" width="232" height="56" fill="#0256bb" opacity="0.998"/>
  <text id="Biz.Portal" transform="translate(48 40)" fill="#e3f3fd" font-size="25" font-family="NotoSans-Bold, Noto Sans" font-weight="700"><tspan x="0" y="0">Biz.Portal</tspan></text>
  <g id="Group_4399" data-name="Group 4399" transform="matrix(0.978, 0.208, -0.208, 0.978, 4.273, -33.556)">
    <path id="Path_11855" data-name="Path 11855" d="M9.149-.02a45.915,45.915,0,0,0,.231,8.44,27.809,27.809,0,0,0,1.053,5.59s-1.018-.072-4.788-.188A9.773,9.773,0,0,0-.033,15.07s1.291-2.909,3.813-7.5A39.963,39.963,0,0,1,9.149-.02Z" transform="matrix(0.966, 0.259, -0.259, 0.966, 174.905, 2.99)" fill="#147de0"/>
    <path id="Path_11856" data-name="Path 11856" d="M9.889-.023a36.806,36.806,0,0,0,.251,8.753c.718,4.717,1.053,5.264,1.053,5.264a39.027,39.027,0,0,0-4.609-2.374,16.467,16.467,0,0,0-6.607-.893Z" transform="matrix(0.966, 0.259, -0.259, 0.966, 174.177, 2.764)" fill="#fff" opacity="0.355"/>
  </g>
</svg>
