<svg xmlns="http://www.w3.org/2000/svg" width="273.728" height="35" viewBox="0 0 273.728 35">
  <g id="그룹_635" data-name="그룹 635" transform="translate(-17.341 -25.119)">
    <g id="그룹_633" data-name="그룹 633" transform="translate(17.341 25.119)">
      <g id="그룹_632" data-name="그룹 632">
        <g id="그룹_630" data-name="그룹 630">
          <path id="패스_2726" data-name="패스 2726" d="M34.463,25.119h8.724L25.739,55.493h-8.4Z" transform="translate(-17.341 -25.119)" fill="#000"/>
        </g>
        <g id="그룹_631" data-name="그룹 631" transform="translate(20.628)">
          <path id="패스_2727" data-name="패스 2727" d="M162.231,25.119h8.235l-8.642,15.187,8.642,15.187h-8.072L153.67,40.306Z" transform="translate(-153.67 -25.119)" fill="#000"/>
        </g>
      </g>
    </g>
    <g id="그룹_634" data-name="그룹 634" transform="translate(63.242 29.538)">
      <path id="패스_2728" data-name="패스 2728" d="M330.221,71.457l8.235,8.185a15.028,15.028,0,0,0,3.459,2.759,7.385,7.385,0,0,0,2.866.832v.609H334.157v-.609a2.293,2.293,0,0,0,1.375-.321.906.906,0,0,0,.42-.716,1.568,1.568,0,0,0-.156-.708,6.275,6.275,0,0,0-1.029-1.169l-7.708-7.626v7.2a7.377,7.377,0,0,0,.214,2.24,1.483,1.483,0,0,0,.692.708,3.032,3.032,0,0,0,1.5.4h.758v.609H320.7v-.609h.791a2.385,2.385,0,0,0,2.009-.807,5.017,5.017,0,0,0,.4-2.536V65.462a7.559,7.559,0,0,0-.214-2.256,1.5,1.5,0,0,0-.675-.692,3.121,3.121,0,0,0-1.515-.4H320.7v-.609h9.52v.609h-.758a3.194,3.194,0,0,0-1.5.379,1.425,1.425,0,0,0-.708.791,7.526,7.526,0,0,0-.2,2.174V72.3q.329-.313,2.256-2.092a49.558,49.558,0,0,0,5.913-5.979,2.158,2.158,0,0,0,.445-1.153.85.85,0,0,0-.346-.667,1.845,1.845,0,0,0-1.169-.288h-.511v-.609h8.2v.609a4.865,4.865,0,0,0-1.318.2,6.789,6.789,0,0,0-1.449.7,14.216,14.216,0,0,0-2.108,1.672q-.363.33-3.343,3.376Z" transform="translate(-320.701 -60.422)" fill="#000"/>
      <path id="패스_2729" data-name="패스 2729" d="M492.8,106.464a6.685,6.685,0,0,1,5.5,2.6,8,8,0,0,1,1.762,5.106,9.623,9.623,0,0,1-.972,4.1,6.9,6.9,0,0,1-6.473,4.183,6.392,6.392,0,0,1-5.419-2.717,8.415,8.415,0,0,1-1.7-5.139,9.11,9.11,0,0,1,1.029-4.126,7.032,7.032,0,0,1,2.709-3.03A6.953,6.953,0,0,1,492.8,106.464Zm-.51,1.071a3.437,3.437,0,0,0-1.754.519,3.635,3.635,0,0,0-1.425,1.82,8.757,8.757,0,0,0-.543,3.343,11.647,11.647,0,0,0,1.309,5.682,3.9,3.9,0,0,0,3.45,2.388,3.214,3.214,0,0,0,2.635-1.318Q497,118.651,497,115.44a10.325,10.325,0,0,0-1.729-6.324A3.564,3.564,0,0,0,492.286,107.535Z" transform="translate(-460.565 -98.639)" fill="#000"/>
      <path id="패스_2730" data-name="패스 2730" d="M596.12,106.464v3.393q1.895-3.393,3.887-3.393a2.112,2.112,0,0,1,1.5.552,1.7,1.7,0,0,1,.593,1.276,1.511,1.511,0,0,1-.428,1.087,1.368,1.368,0,0,1-1.021.445,2.176,2.176,0,0,1-1.293-.568,2.135,2.135,0,0,0-1.062-.568.98.98,0,0,0-.642.329,7.935,7.935,0,0,0-1.532,2.223v7.23a4.469,4.469,0,0,0,.313,1.894,1.71,1.71,0,0,0,.758.741,3.33,3.33,0,0,0,1.565.3V122h-7.724V121.4a3.209,3.209,0,0,0,1.713-.362,1.405,1.405,0,0,0,.576-.84,8.527,8.527,0,0,0,.082-1.6v-5.847a24.413,24.413,0,0,0-.107-3.138,1.223,1.223,0,0,0-.4-.733,1.111,1.111,0,0,0-.716-.231,3.256,3.256,0,0,0-1.153.247l-.165-.593,4.562-1.845Z" transform="translate(-549.988 -98.637)" fill="#000"/>
      <path id="패스_2731" data-name="패스 2731" d="M673.635,62.728v8.778H677.7a2.9,2.9,0,0,0,2.051-.618,4.093,4.093,0,0,0,.865-2.446h.609V76h-.609a4.424,4.424,0,0,0-.338-1.911,2.139,2.139,0,0,0-.889-.914,3.674,3.674,0,0,0-1.688-.3h-4.068v7.016a7.382,7.382,0,0,0,.214,2.24,1.483,1.483,0,0,0,.692.708,3.121,3.121,0,0,0,1.515.4h.807v.609h-9.586v-.609h.791a2.385,2.385,0,0,0,2.009-.807,5.017,5.017,0,0,0,.4-2.536V65.462a7.376,7.376,0,0,0-.214-2.24,1.484,1.484,0,0,0-.675-.708,3.061,3.061,0,0,0-1.515-.4h-.791v-.609H683.9l.214,4.908h-.576a6.736,6.736,0,0,0-1-2.3,3.274,3.274,0,0,0-1.4-1.062,7.469,7.469,0,0,0-2.578-.329Z" transform="translate(-614.838 -60.422)" fill="#000"/>
      <path id="패스_2732" data-name="패스 2732" d="M799.467,62.214V74.336a5.57,5.57,0,0,0,.206,1.886,1.448,1.448,0,0,0,.609.7,3.258,3.258,0,0,0,1.474.231v.593h-7.329v-.593a3.414,3.414,0,0,0,1.482-.214,1.47,1.47,0,0,0,.6-.708,5.319,5.319,0,0,0,.222-1.894V68.522a20.552,20.552,0,0,0-.148-3.179,1.3,1.3,0,0,0-.362-.733,1.023,1.023,0,0,0-.675-.206,3.3,3.3,0,0,0-1.12.247l-.231-.593,4.546-1.845ZM798.1,54.325a1.659,1.659,0,0,1,1.664,1.663,1.629,1.629,0,0,1-.486,1.186,1.591,1.591,0,0,1-1.178.494,1.687,1.687,0,0,1-1.68-1.68,1.6,1.6,0,0,1,.486-1.178A1.625,1.625,0,0,1,798.1,54.325Z" transform="translate(-722.553 -54.325)" fill="#000"/>
      <path id="패스_2733" data-name="패스 2733" d="M856.162,109.659q2.651-3.2,5.056-3.2a3.632,3.632,0,0,1,2.125.618,4.132,4.132,0,0,1,1.416,2.034,9.4,9.4,0,0,1,.362,3.03v6.44a5.438,5.438,0,0,0,.231,1.943,1.356,1.356,0,0,0,.585.642,3.307,3.307,0,0,0,1.49.231V122h-7.461V121.4h.313a2.509,2.509,0,0,0,1.474-.321,1.684,1.684,0,0,0,.585-.947,9.544,9.544,0,0,0,.066-1.548V112.41a6.263,6.263,0,0,0-.535-2.989,1.913,1.913,0,0,0-1.8-.931,5.433,5.433,0,0,0-3.9,2.141v7.955a5.7,5.7,0,0,0,.181,1.894,1.522,1.522,0,0,0,.634.7,3.923,3.923,0,0,0,1.639.222V122h-7.461V121.4h.329a1.772,1.772,0,0,0,1.557-.585,4.273,4.273,0,0,0,.4-2.232v-5.6a24.337,24.337,0,0,0-.123-3.31,1.421,1.421,0,0,0-.379-.807,1.032,1.032,0,0,0-.684-.214,3.166,3.166,0,0,0-1.1.247l-.247-.593,4.546-1.845h.708Z" transform="translate(-770.683 -98.637)" fill="#000"/>
      <path id="패스_2734" data-name="패스 2734" d="M1026.961,71.869h10.376v-6.39a7.46,7.46,0,0,0-.214-2.256,1.48,1.48,0,0,0-.692-.708,3.031,3.031,0,0,0-1.5-.4h-.791v-.609h9.553v.609h-.791a3.133,3.133,0,0,0-1.5.379,1.388,1.388,0,0,0-.716.8,7.921,7.921,0,0,0-.189,2.182V79.889a7.377,7.377,0,0,0,.214,2.24,1.487,1.487,0,0,0,.675.708,3.122,3.122,0,0,0,1.515.4h.791v.609h-9.553v-.609h.791a2.365,2.365,0,0,0,1.993-.807,4.833,4.833,0,0,0,.412-2.536v-6.8h-10.376v6.8a7.376,7.376,0,0,0,.214,2.24,1.481,1.481,0,0,0,.692.708,3.032,3.032,0,0,0,1.5.4h.807v.609H1020.6v-.609h.791a2.385,2.385,0,0,0,2.009-.807,5.017,5.017,0,0,0,.4-2.536V65.478a7.456,7.456,0,0,0-.214-2.256,1.484,1.484,0,0,0-.675-.708,3.12,3.12,0,0,0-1.515-.4h-.791v-.609h9.569v.609h-.807a3.132,3.132,0,0,0-1.5.379,1.426,1.426,0,0,0-.708.8,7.623,7.623,0,0,0-.2,2.182Z" transform="translate(-914.703 -60.422)" fill="#000"/>
      <path id="패스_2735" data-name="패스 2735" d="M1192.589,106.464a6.684,6.684,0,0,1,5.5,2.6,7.994,7.994,0,0,1,1.762,5.106,9.622,9.622,0,0,1-.972,4.1,6.9,6.9,0,0,1-6.473,4.183,6.392,6.392,0,0,1-5.419-2.717,8.415,8.415,0,0,1-1.7-5.139,9.11,9.11,0,0,1,1.03-4.126,7.033,7.033,0,0,1,2.709-3.03A6.953,6.953,0,0,1,1192.589,106.464Zm-.511,1.071a3.438,3.438,0,0,0-1.754.519,3.635,3.635,0,0,0-1.424,1.82,8.758,8.758,0,0,0-.544,3.343,11.647,11.647,0,0,0,1.309,5.682,3.9,3.9,0,0,0,3.45,2.388,3.214,3.214,0,0,0,2.635-1.318q1.038-1.318,1.037-4.529a10.324,10.324,0,0,0-1.729-6.324A3.564,3.564,0,0,0,1192.079,107.535Z" transform="translate(-1054.473 -98.639)" fill="#000"/>
      <path id="패스_2736" data-name="패스 2736" d="M1301.122,54.325V74.336a5.487,5.487,0,0,0,.206,1.877,1.46,1.46,0,0,0,.634.7,3.647,3.647,0,0,0,1.6.239v.593h-7.4v-.593a3.2,3.2,0,0,0,1.416-.214,1.432,1.432,0,0,0,.593-.708,5.5,5.5,0,0,0,.214-1.894v-13.7a23.627,23.627,0,0,0-.115-3.138,1.38,1.38,0,0,0-.37-.8.978.978,0,0,0-.651-.214,3.088,3.088,0,0,0-1.087.263l-.28-.576,4.5-1.845Z" transform="translate(-1148.332 -54.325)" fill="#000"/>
      <path id="패스_2737" data-name="패스 2737" d="M1369.172,76.049a7.627,7.627,0,0,1-2.157,1.655,5.215,5.215,0,0,1-2.273.5,5.626,5.626,0,0,1-4.315-2.067,7.674,7.674,0,0,1-1.845-5.312,9.6,9.6,0,0,1,2.042-5.937,6.314,6.314,0,0,1,5.254-2.693,4.525,4.525,0,0,1,3.294,1.268V60.682a22.785,22.785,0,0,0-.124-3.179,1.379,1.379,0,0,0-.387-.807,1.013,1.013,0,0,0-.659-.214,3.485,3.485,0,0,0-1.136.263l-.214-.576,4.5-1.845h.741V71.767a23.29,23.29,0,0,0,.124,3.236,1.437,1.437,0,0,0,.4.815.948.948,0,0,0,.634.231,3.575,3.575,0,0,0,1.186-.28l.181.576-4.48,1.861h-.758Zm0-1.153V67.122a5.254,5.254,0,0,0-.593-2.042,3.419,3.419,0,0,0-1.31-1.392,3.179,3.179,0,0,0-1.589-.469,3.37,3.37,0,0,0-2.586,1.3,7.389,7.389,0,0,0-1.5,5.007,7.863,7.863,0,0,0,1.449,5.1,4.157,4.157,0,0,0,3.228,1.771A4.011,4.011,0,0,0,1369.172,74.9Z" transform="translate(-1201.542 -54.325)" fill="#000"/>
      <path id="패스_2738" data-name="패스 2738" d="M1474.443,62.214V74.336a5.565,5.565,0,0,0,.206,1.886,1.446,1.446,0,0,0,.609.7,3.257,3.257,0,0,0,1.474.231v.593H1469.4v-.593a3.414,3.414,0,0,0,1.482-.214,1.469,1.469,0,0,0,.6-.708,5.321,5.321,0,0,0,.222-1.894V68.522a20.546,20.546,0,0,0-.148-3.179,1.3,1.3,0,0,0-.362-.733,1.023,1.023,0,0,0-.675-.206,3.3,3.3,0,0,0-1.12.247l-.231-.593,4.546-1.845Zm-1.367-7.889a1.659,1.659,0,0,1,1.663,1.663,1.629,1.629,0,0,1-.486,1.186,1.591,1.591,0,0,1-1.178.494,1.687,1.687,0,0,1-1.68-1.68,1.6,1.6,0,0,1,.486-1.178A1.624,1.624,0,0,1,1473.076,54.325Z" transform="translate(-1295.4 -54.325)" fill="#000"/>
      <path id="패스_2739" data-name="패스 2739" d="M1531.138,109.659q2.651-3.2,5.056-3.2a3.632,3.632,0,0,1,2.125.618,4.135,4.135,0,0,1,1.416,2.034,9.4,9.4,0,0,1,.362,3.03v6.44a5.438,5.438,0,0,0,.23,1.943,1.355,1.355,0,0,0,.585.642,3.308,3.308,0,0,0,1.491.231V122h-7.461V121.4h.313a2.51,2.51,0,0,0,1.474-.321,1.685,1.685,0,0,0,.585-.947,9.526,9.526,0,0,0,.066-1.548V112.41a6.262,6.262,0,0,0-.536-2.989,1.913,1.913,0,0,0-1.8-.931,5.433,5.433,0,0,0-3.9,2.141v7.955a5.7,5.7,0,0,0,.181,1.894,1.523,1.523,0,0,0,.634.7,3.921,3.921,0,0,0,1.639.222V122h-7.461V121.4h.329a1.772,1.772,0,0,0,1.557-.585,4.274,4.274,0,0,0,.4-2.232v-5.6a24.35,24.35,0,0,0-.124-3.31,1.421,1.421,0,0,0-.379-.807,1.032,1.032,0,0,0-.683-.214,3.166,3.166,0,0,0-1.1.247l-.247-.593,4.546-1.845h.708Z" transform="translate(-1343.53 -98.637)" fill="#000"/>
      <path id="패스_2740" data-name="패스 2740" d="M1646.763,116.494a4.956,4.956,0,0,1-2.866-4.562,5.151,5.151,0,0,1,1.688-3.854,6,6,0,0,1,4.323-1.614,6.584,6.584,0,0,1,3.739,1.054h3.2a4.218,4.218,0,0,1,.823.041.278.278,0,0,1,.165.14,1.008,1.008,0,0,1,.1.527,1.48,1.48,0,0,1-.082.593.338.338,0,0,1-.173.132,3.65,3.65,0,0,1-.832.049h-1.96a5.083,5.083,0,0,1-.692,6.637,6.113,6.113,0,0,1-4.332,1.5,8.41,8.41,0,0,1-2.289-.329,4.338,4.338,0,0,0-.98,1.1,1.758,1.758,0,0,0-.255.8.762.762,0,0,0,.272.544,1.99,1.99,0,0,0,1.062.379q.462.066,2.306.115,3.392.083,4.4.231a4.129,4.129,0,0,1,2.446,1.136,3.1,3.1,0,0,1,.914,2.273,4.761,4.761,0,0,1-1.746,3.492,9.415,9.415,0,0,1-6.7,2.4,9.6,9.6,0,0,1-5.369-1.433q-1.235-.824-1.235-1.713a1.891,1.891,0,0,1,.181-.791,9.229,9.229,0,0,1,1.153-1.7q.116-.148,1.68-1.779a5.171,5.171,0,0,1-1.211-.914,1.352,1.352,0,0,1-.354-.914,2.711,2.711,0,0,1,.469-1.35A10.8,10.8,0,0,1,1646.763,116.494Zm-.165,5.5a8.135,8.135,0,0,0-1.169,1.565,2.824,2.824,0,0,0-.4,1.334,1.667,1.667,0,0,0,.955,1.383,9.1,9.1,0,0,0,4.76,1.021,7.358,7.358,0,0,0,4.372-1.046,2.874,2.874,0,0,0,1.408-2.232,1.248,1.248,0,0,0-.84-1.219,11,11,0,0,0-3.393-.428A54.122,54.122,0,0,1,1646.6,122Zm3.031-14.74a2.572,2.572,0,0,0-2.042.972,4.54,4.54,0,0,0-.823,2.981,6.419,6.419,0,0,0,1.12,4.035,2.655,2.655,0,0,0,2.174,1.087,2.594,2.594,0,0,0,2.059-.939,4.457,4.457,0,0,0,.807-2.948,6.6,6.6,0,0,0-1.136-4.1A2.61,2.61,0,0,0,1649.629,107.255Z" transform="translate(-1442.653 -98.694)" fill="#000"/>
      <path id="패스_2741" data-name="패스 2741" d="M1767.543,106.464V111.6H1767a6.67,6.67,0,0,0-1.606-3.294,3.613,3.613,0,0,0-2.5-.873,2.755,2.755,0,0,0-1.861.609,1.765,1.765,0,0,0-.708,1.35,2.454,2.454,0,0,0,.527,1.581,5.865,5.865,0,0,0,2.075,1.433l2.4,1.169q3.342,1.631,3.343,4.3a4.06,4.06,0,0,1-1.556,3.319,5.4,5.4,0,0,1-3.484,1.26,11.982,11.982,0,0,1-3.162-.494,3.222,3.222,0,0,0-.889-.165.656.656,0,0,0-.593.428h-.543V116.84H1759a6.13,6.13,0,0,0,1.762,3.475,4.253,4.253,0,0,0,2.915,1.169,2.611,2.611,0,0,0,1.853-.667,2.117,2.117,0,0,0,.716-1.606,2.558,2.558,0,0,0-.8-1.911,13.919,13.919,0,0,0-3.187-1.96,9.441,9.441,0,0,1-3.129-2.141,3.71,3.71,0,0,1-.741-2.372,4.181,4.181,0,0,1,1.276-3.113,4.519,4.519,0,0,1,3.3-1.252,7.748,7.748,0,0,1,2.158.379,5.107,5.107,0,0,0,1.12.247.657.657,0,0,0,.412-.115,1.58,1.58,0,0,0,.346-.511Z" transform="translate(-1540.852 -98.639)" fill="#000"/>
    </g>
  </g>
</svg>
