<svg xmlns="http://www.w3.org/2000/svg" width="22.545" height="24" viewBox="0 0 22.545 24">
  <g id="logout_1_" data-name="logout (1)" transform="translate(-10)">
    <path id="Path_12015" data-name="Path 12015" d="M82.773,80.318a1.091,1.091,0,1,0-1.543,1.543l3.229,3.229H71.093a1.091,1.091,0,1,0,0,2.182H84.459L81.231,90.5a1.091,1.091,0,0,0,1.543,1.543l5.091-5.091a1.091,1.091,0,0,0,0-1.543Z" transform="translate(-55.638 -74.181)" fill="#fff"/>
    <path id="Path_12016" data-name="Path 12016" d="M20.545,24a1.091,1.091,0,0,0,0-2.182H12.182V2.182h8.364a1.091,1.091,0,0,0,0-2.182H11.091A1.091,1.091,0,0,0,10,1.091V22.909A1.091,1.091,0,0,0,11.091,24Z" fill="#fff"/>
  </g>
</svg>
