<svg xmlns="http://www.w3.org/2000/svg" width="65.12" height="16.939" viewBox="0 0 65.12 16.939">
  <g id="그룹_16985" data-name="그룹 16985" transform="translate(332 -921.531)">
    <g id="그룹_16984" data-name="그룹 16984" transform="translate(-932 -8181)">
      <g id="그룹_16919" data-name="그룹 16919" transform="translate(15.551 225.948)">
        <g id="그룹_16915" data-name="그룹 16915" transform="translate(635.569 8877.052)">
          <path id="패스_11452" data-name="패스 11452" d="M481.744,24.927h4l2.882-4.82,2.971,4.82h4.059l-4.97-8.122,4.97-8.284h-4Z" transform="translate(-481.655 -8.521)" fill="#053577"/>
          <path id="패스_11453" data-name="패스 11453" d="M485.443,16.062l2.015-3.312-2.6-4.229h-4Z" transform="translate(-480.855 -8.521)" fill="#00a4bb"/>
        </g>
      </g>
      <g id="그룹_16918" data-name="그룹 16918" transform="translate(39 224)">
        <path id="패스_43043" data-name="패스 43043" d="M394.673,50.891l-1.892,3.947,4.235,8.93h3.877Z" transform="translate(208.997 8831.697)" fill="#00a4bb"/>
        <path id="패스_43044" data-name="패스 43044" d="M307.966,25.458h3.784l6.61-13.5-1.635-3.3a.357.357,0,0,0-.552-.014" transform="translate(284.924 8870.012)" fill="#053577"/>
      </g>
      <g id="그룹_16917" data-name="그룹 16917" transform="translate(58 225)">
        <path id="패스_43046" data-name="패스 43046" d="M0,0H3.495V12.727H0Z" transform="translate(559.106 8878)" fill="#00a4bb"/>
        <path id="패스_43045" data-name="패스 43045" d="M175.942,8.31h-1.977V11.4H175.6a5.141,5.141,0,1,1-.014,10.282h-5.845v3.085h6.188a8.226,8.226,0,1,0,.009-16.451Z" transform="translate(389.349 8869.694)" fill="#053577"/>
      </g>
      <g id="그룹_16916" data-name="그룹 16916" transform="translate(600 9103)">
        <path id="패스_11449" data-name="패스 11449" d="M63.064,8.31H67.31l-7.07,8.2-2.386-2.353Z" transform="translate(-53.248 -8.311)" fill="#00a4bb"/>
        <path id="패스_11450" data-name="패스 11450" d="M11.077,8.31H14.4v5.5l10.763,10.73H20.5L14.4,18.449v6.089H11.077Z" transform="translate(-11.077 -8.311)" fill="#053577"/>
        <path id="패스_11455" data-name="패스 11455" d="M65.667,59.435" transform="translate(-60.29 -54.415)" fill="#053577"/>
      </g>
    </g>
  </g>
</svg>
