<svg xmlns="http://www.w3.org/2000/svg" width="111.169" height="30.163" viewBox="0 0 111.169 30.163">
  <g id="그룹_16986" data-name="그룹 16986" transform="translate(-515 -8877.051)">
    <g id="그룹_16919" data-name="그룹 16919" transform="translate(-34)">
      <g id="그룹_16915" data-name="그룹 16915" transform="translate(635.569 8878.052)">
        <path id="패스_11452" data-name="패스 11452" d="M481.744,37.192h7.029l5.065-8.423,5.22,8.423h7.132L497.455,23l8.734-14.477H499.16Z" transform="translate(-481.589 -8.521)" fill="#fff"/>
        <path id="패스_11453" data-name="패스 11453" d="M488.917,21.7l3.54-5.788-4.574-7.39h-7.029Z" transform="translate(-480.855 -8.521)" fill="#fff"/>
      </g>
    </g>
    <g id="그룹_16918" data-name="그룹 16918" transform="translate(-24 -1)">
      <path id="패스_43043" data-name="패스 43043" d="M396.084,50.891l-3.3,6.891,7.394,15.591h6.769Z" transform="translate(215.626 8834.841)" fill="#fff"/>
      <path id="패스_43044" data-name="패스 43044" d="M307.966,38.682h6.606l11.54-24.035-2.855-5.879a.616.616,0,0,0-.963-.025" transform="translate(284.924 8869.532)" fill="#fff"/>
    </g>
    <g id="그룹_16917" data-name="그룹 16917" transform="translate(-15)">
      <path id="패스_43046" data-name="패스 43046" d="M0,0H6.157V22.422H0Z" transform="translate(559.115 8878)" fill="#fff"/>
      <path id="패스_43045" data-name="패스 43045" d="M180.662,8.31h-3.483v5.435h2.886a9.057,9.057,0,1,1-.024,18.114h-10.3v5.434h10.9a14.492,14.492,0,1,0,.016-28.984Z" transform="translate(389.349 8869.69)" fill="#fff"/>
    </g>
    <g id="그룹_16916" data-name="그룹 16916" transform="translate(515 8878)">
      <path id="패스_11449" data-name="패스 11449" d="M67.131,8.31h7.561L62.1,22.9l-4.248-4.19Z" transform="translate(-49.651 -8.311)" fill="#fff"/>
      <path id="패스_11450" data-name="패스 11450" d="M11.077,8.31H17V18.1L36.167,37.207h-8.3L16.987,26.364V37.207H11.077Z" transform="translate(-11.077 -8.311)" fill="#fff"/>
      <path id="패스_11455" data-name="패스 11455" d="M65.667,59.435" transform="translate(-56.093 -50.496)" fill="#fff"/>
    </g>
  </g>
</svg>
